<svg width="19" height="11" viewBox="0 0 19 11" fill="none" xmlns="http://www.w3.org/2000/svg">
<path d="M4.33106 1.6266L4.26084 1.80216C3.80438 1.42522 3.81884 1.1877 3.36238 0.88202L3.42021 0.890281C3.42021 0.829351 2.96892 0.909903 2.9999 0.220053H3.01849C2.99784 0.201465 2.96066 0.211792 2.97718 0.160156L2.9462 0.286147C2.85759 0.254266 2.77072 0.217726 2.68596 0.17668L0.774414 0.949146C0.808493 0.959473 0.843606 0.971865 0.877685 0.986323C0.881856 0.991044 0.884976 0.996599 0.886835 1.00262C0.888695 1.00864 0.889253 1.01498 0.888471 1.02123C0.88769 1.02749 0.885587 1.0335 0.882303 1.03888C0.879019 1.04425 0.874628 1.04887 0.869423 1.05242C0.869423 1.05242 0.986119 1.09269 1.11004 1.13607C1.23397 1.17944 1.35996 1.21249 1.35996 1.21249L1.3992 1.26515L1.44464 1.31989C1.64189 1.32815 1.6801 1.17737 2.03845 1.34777C1.94964 1.21662 2.2863 1.32815 2.26565 1.26515C2.2908 1.28917 2.31773 1.31126 2.3462 1.33125C2.63887 1.37269 2.93631 1.36676 3.2271 1.31369C3.06415 1.27209 2.90436 1.21894 2.74895 1.15465C2.56486 1.08841 2.39594 0.985861 2.25222 0.853104C2.5073 0.937786 2.33071 0.853104 2.30386 0.811795L2.26771 0.832449C2.12726 0.77152 2.18406 0.709557 2.12726 0.673412C2.12267 0.6787 2.11884 0.684611 2.1159 0.690968L2.13243 0.685805C2.13036 0.691815 2.12665 0.697128 2.12173 0.701143C2.1168 0.705157 2.11085 0.707714 2.10454 0.708525C2.09422 0.72195 2.07769 0.730211 2.04051 0.714721H2.05497C1.98291 0.70157 1.91327 0.677543 1.84843 0.643464L1.9042 0.595959C1.80816 0.62281 1.68733 0.53916 1.60988 0.436922L1.53655 0.34088V0.466871C1.53655 0.598025 1.50557 0.747767 1.53655 0.791141C1.48698 0.900608 1.71934 0.959473 1.74309 1.07307C1.84637 1.23727 1.677 1.18667 1.66564 1.28684C1.69559 1.40044 1.75652 1.2383 1.79783 1.27651L1.77408 1.42832C1.70179 1.36326 1.67907 1.4149 1.65428 1.43658C1.72967 1.53985 1.70282 1.7464 1.91556 1.72987C1.94964 1.89098 1.87838 1.9106 1.92279 1.97153C1.93828 1.94261 1.93311 1.89614 1.97029 1.88478C1.93931 1.9612 2.0147 1.90543 2.0116 1.87858C2.16857 1.93951 2.07459 2.4032 2.29353 2.36499L2.25635 2.37532C2.42468 2.35363 2.54241 2.28134 2.67873 2.31645L2.64878 2.37325L2.76857 2.41353C2.75618 2.46619 2.69835 2.45793 2.67976 2.4631C2.8388 2.53848 2.8863 2.69339 2.96995 2.81318L3.26324 2.57669C3.26324 2.69959 3.23329 2.92781 3.3851 2.90923L3.30455 3.0063C3.23226 3.27377 3.5493 3.10957 3.54517 3.20768L3.49147 3.34709L3.39956 3.25002C3.41542 3.3418 3.41084 3.43595 3.38613 3.52575C3.38673 3.52218 3.38829 3.51885 3.39066 3.51612C3.39303 3.51338 3.39611 3.51136 3.39956 3.51026L3.43054 3.5113C3.47627 3.5072 3.52233 3.51353 3.56526 3.52981C3.60819 3.54609 3.64687 3.57189 3.67839 3.60527C3.75378 3.70854 3.9376 3.74985 3.93553 3.94916L4.12452 3.94193L4.15034 4.08342L4.03054 4.11956C3.92727 4.00493 3.666 3.80975 3.51419 3.66414L3.45636 3.67756C3.54311 3.76328 3.69388 3.84486 3.73932 3.90579C3.73652 3.9262 3.72929 3.94575 3.71815 3.96308C3.70701 3.9804 3.69221 3.99509 3.67481 4.0061C3.6574 4.01712 3.63779 4.0242 3.61736 4.02685C3.59694 4.0295 3.57617 4.02766 3.55653 4.02145L3.72796 4.03901C3.94079 4.19966 4.10779 4.41331 4.2123 4.65863L4.24535 4.61423C4.34139 4.66277 4.4364 4.71027 4.35688 4.75674C4.4364 4.82616 4.50073 4.91125 4.54587 5.00667C4.591 5.10209 4.61596 5.2058 4.61919 5.31131L4.78545 5.29272C4.81747 5.33299 4.66773 5.45589 4.88253 5.41148L5.03021 5.47344C5.07564 5.52818 5.18924 5.53334 5.17272 5.61699V5.63351H5.18408C5.24811 5.7688 5.30697 5.5922 5.371 5.75021C5.31833 5.82456 5.5982 5.73988 5.63641 5.81424L5.50835 5.94332C5.52384 6.09616 5.74484 6.04659 5.93383 6.21802C5.95345 6.32129 5.83055 6.41734 5.62401 6.41321C5.74464 6.40091 5.8663 6.42274 5.97513 6.4762C5.9173 6.51648 5.89045 6.51131 5.79957 6.51235C5.8099 6.62801 5.9266 6.54333 5.99682 6.60942C6.14174 6.57385 6.28976 6.5524 6.43882 6.54539L6.45431 6.50615C6.60715 6.54952 6.72798 6.60942 6.74967 6.71269L6.67634 6.73335L6.80956 6.80564L6.72591 6.84178L6.89218 6.95331V6.92853C6.93555 6.95331 7.076 7.0318 7.09149 7.10409L7.03986 7.11958C7.06154 7.32612 7.40853 7.37569 7.6316 7.54402L7.50354 7.55641C7.47566 7.65142 7.67807 7.5182 7.71008 7.60598L7.59132 7.65349C7.82781 7.65349 7.65432 7.7454 7.64399 7.81046L7.78134 7.73301L7.84434 7.82595C7.89804 7.92922 7.70699 7.95401 7.60681 7.97053L7.802 7.98602L7.67394 8.04902C7.89287 8.03353 7.70079 8.10272 7.88048 8.15229C7.83504 8.17811 7.77721 8.16984 7.7896 8.20392L8.14589 8.25866L7.9631 8.21425L8.18203 8.14816C8.43711 8.16984 8.29253 8.26382 8.42162 8.29996L8.31112 8.28344C8.33825 8.29229 8.36335 8.30643 8.38497 8.32504C8.4066 8.34366 8.42432 8.36637 8.43711 8.39188C8.45154 8.43906 8.47057 8.48472 8.49391 8.52819C8.49391 8.48275 8.49391 8.41769 8.59718 8.47036C8.66534 8.51167 8.56207 8.52716 8.59718 8.58293C8.67211 8.56115 8.75208 8.56427 8.82508 8.59184C8.89808 8.6194 8.96016 8.6699 9.002 8.73577C8.98663 8.74621 8.96887 8.7526 8.95037 8.75436C8.99994 8.76778 9.04331 8.76055 9.07429 8.82355L8.93797 8.88138H9.14452C9.18996 8.96503 9.36758 8.97432 9.29323 9.03525L9.23126 9.02286L9.78376 9.49171L9.74349 9.59498C9.86328 9.49171 10.0533 9.90479 10.0936 9.69825C10.1845 9.89756 10.5418 9.95023 10.4447 10.1433C10.8578 10.4738 11.0385 10.3747 11.5032 10.8342L11.5197 10.8249C11.6912 10.9509 11.9865 10.4119 12.1972 10.1557C12.5525 9.50101 12.7342 9.08792 13.0688 8.54782C13.19 8.50263 13.2969 8.42599 13.3786 8.32578C13.4468 8.24735 13.5026 8.15888 13.5439 8.06347C13.5565 7.99731 13.5843 7.93494 13.6249 7.88122C13.6656 7.82749 13.718 7.78385 13.7783 7.75366L13.6957 7.67311C13.991 7.59876 13.9115 7.354 14.244 7.23111C14.2308 7.20239 14.2269 7.17027 14.2327 7.1392C14.1915 7.15125 14.1478 7.15125 14.1067 7.1392C14.2038 7.10409 14.2213 6.98946 14.369 7.03593V7.05245C14.5167 7.09996 14.4258 6.88722 14.6065 6.8676L14.4155 6.85417L14.5187 6.76949L14.5291 6.80254C14.5208 6.30684 15.2034 6.26966 15.2241 5.80907C15.3542 5.91234 15.2003 5.7058 15.3976 5.7595C15.7301 5.73678 15.5132 5.57361 15.5236 5.4786C15.5126 5.47558 15.5024 5.47031 15.4936 5.46311L15.6506 5.32886C15.8148 5.47964 15.5473 5.17396 15.6785 5.30718C16.2031 5.01698 16.4778 4.51509 16.9879 4.15157H16.9084C17.0282 4.05657 17.0871 3.90889 17.2688 3.86655C17.4506 3.82421 17.3029 3.65174 17.3246 3.61457C17.3132 3.49787 17.6034 3.49271 17.5528 3.52472C17.621 3.42765 17.5053 3.27377 17.7367 3.18496C17.9804 3.21594 17.9225 2.7884 18.1549 2.86792L18.1373 2.85966C18.4771 2.76361 18.3842 2.52299 18.7281 2.41146C18.7358 2.4174 18.7428 2.42435 18.7487 2.43212L18.504 1.85896L17.6613 1.6834L16.7019 1.75569L16.2702 2.18633L15.8571 2.618L15.3614 2.90716L14.8688 3.20148C14.8688 3.20148 14.4392 3.61457 14.0323 4.02765C13.6254 4.44073 13.2371 4.86931 13.2371 4.86931L13.295 5.03867C12.6681 5.28032 12.6289 5.80391 12.0867 6.10339L12.2344 6.15503C12.1549 6.2583 12.065 6.22732 12.0165 6.24591C11.8182 6.48136 11.6364 6.72302 11.4598 6.9688L11.1996 7.33232L11.0716 7.51304C11.0416 7.55435 11.0478 7.54919 11.0447 7.55641L11.0375 7.575C11.0003 7.67001 10.9053 7.8084 10.8309 7.76605L10.8247 7.75986C10.7896 7.62457 10.7659 7.67001 10.7638 7.55332C10.7287 7.72681 10.6265 7.6442 10.5975 7.60082L10.612 7.59359H10.5666C10.5774 7.58656 10.5888 7.58035 10.6006 7.575C10.5778 7.58228 10.5533 7.58228 10.5304 7.575H10.5211L10.487 7.53886C10.4633 7.51717 10.4406 7.49342 10.4178 7.46967C10.3301 7.37466 10.2619 7.26312 10.1906 7.17638H10.2175C9.06277 6.35028 7.98475 5.42192 6.99648 4.40252C6.75689 3.87997 5.88632 3.45553 5.56825 2.87205C5.61885 2.73573 4.4808 1.70509 4.33106 1.6266Z" fill="#202020"/>
</svg>
